name D:\school\WTK\thesis\model\3dpredictsim\Results\MidTarsalJoint\Fal_s1_bCst_PF_Natali2010_ls150_MT_k2000_d020_MTP_T5_ig24.mot
datacolumns 128
datarows 4
range 1.66831634 1.70168267
endheader
time	pelvis_tilt	pelvis_list	pelvis_rotation	pelvis_tx	pelvis_ty	pelvis_tz	hip_flexion_l	hip_adduction_l	hip_rotation_l	hip_flexion_r	hip_adduction_r	hip_rotation_r	knee_angle_l	knee_angle_r	ankle_angle_l	ankle_angle_r	subtalar_angle_l	subtalar_angle_r	mtj_angle_l	mtj_angle_r	mtp_angle_l	mtp_angle_r	lumbar_extension	lumbar_bending	lumbar_rotation	arm_flex_l	arm_add_l	arm_rot_l	arm_flex_r	arm_add_r	arm_rot_r	elbow_flex_l	elbow_flex_r	pro_sup_l	pro_sup_r	glut_med1_l/activation	glut_med2_l/activation	glut_med3_l/activation	glut_min1_l/activation	glut_min2_l/activation	glut_min3_l/activation	semimem_l/activation	semiten_l/activation	bifemlh_l/activation	bifemsh_l/activation	sar_l/activation	add_long_l/activation	add_brev_l/activation	add_mag1_l/activation	add_mag2_l/activation	add_mag3_l/activation	tfl_l/activation	pect_l/activation	grac_l/activation	glut_max1_l/activation	glut_max2_l/activation	glut_max3_l/activation	iliacus_l/activation	psoas_l/activation	quad_fem_l/activation	gem_l/activation	peri_l/activation	rect_fem_l/activation	vas_med_l/activation	vas_int_l/activation	vas_lat_l/activation	med_gas_l/activation	lat_gas_l/activation	soleus_l/activation	tib_post_l/activation	flex_dig_l/activation	flex_hal_l/activation	tib_ant_l/activation	per_brev_l/activation	per_long_l/activation	per_tert_l/activation	ext_dig_l/activation	ext_hal_l/activation	ercspn_l/activation	intobl_l/activation	extobl_l/activation	glut_med1_r/activation	glut_med2_r/activation	glut_med3_r/activation	glut_min1_r/activation	glut_min2_r/activation	glut_min3_r/activation	semimem_r/activation	semiten_r/activation	bifemlh_r/activation	bifemsh_r/activation	sar_r/activation	add_long_r/activation	add_brev_r/activation	add_mag1_r/activation	add_mag2_r/activation	add_mag3_r/activation	tfl_r/activation	pect_r/activation	grac_r/activation	glut_max1_r/activation	glut_max2_r/activation	glut_max3_r/activation	iliacus_r/activation	psoas_r/activation	quad_fem_r/activation	gem_r/activation	peri_r/activation	rect_fem_r/activation	vas_med_r/activation	vas_int_r/activation	vas_lat_r/activation	med_gas_r/activation	lat_gas_r/activation	soleus_r/activation	tib_post_r/activation	flex_dig_r/activation	flex_hal_r/activation	tib_ant_r/activation	per_brev_r/activation	per_long_r/activation	per_tert_r/activation	ext_dig_r/activation	ext_hal_r/activation	ercspn_r/activation	intobl_r/activation	extobl_r/activation	
          1.66831634	         -2.92931566	          1.98880647	         -4.70133740	          2.08539543	          0.92080984	          0.00169730	         29.93012969	          3.21100974	         -1.97291288	        -17.54591745	         -0.85267438	          6.49203751	        -13.19656459	         -4.95142027	          6.35139568	          0.13511685	         -4.15908914	          7.86480613	         -0.00655378	          0.92629131	         -0.89964393	         18.55601668	         -2.28521315	         -0.15385808	          1.87227159	         -4.13722638	        -13.46928123	          6.31890530	          4.98922394	        -13.45097736	         15.75048449	         17.53814482	         32.83239734	         86.51662706	         86.51662706	          0.06123160	          0.05000087	          0.05926830	          0.05000034	          0.05000033	          0.05000205	          0.07505631	          0.05926909	          0.22448046	          0.05000145	          0.05000027	          0.12895136	          0.17148755	          0.15882280	          0.14491525	          0.11656811	          0.05000188	          0.05000342	          0.08743891	          0.05926857	          0.09488641	          0.10400510	          0.05000003	          0.05000008	          0.14954095	          0.05000009	          0.05000045	          0.05000004	          0.05000042	          0.05000074	          0.05000021	          0.05000000	          0.05000002	          0.05000000	          0.05926838	          0.05000082	          0.05495990	          0.45924022	          0.27887830	          0.20135161	          0.08380617	          0.43163509	          0.15675760	          0.07025492	          0.12760526	          0.12084972	          0.32626105	          0.11701385	          0.08327810	          0.35667456	          0.23074484	          0.12411905	          0.05000025	          0.05000007	          0.05000005	          0.07416149	          0.11701526	          0.05000003	          0.05000002	          0.05000003	          0.05000012	          0.05000010	          0.35382789	          0.05000013	          0.05000013	          0.05000630	          0.05000107	          0.05000024	          0.42767160	          0.64424317	          0.05000008	          0.05000104	          0.06253504	          0.24586481	          0.05000008	          0.05000009	          0.05000009	          0.33517261	          0.46037450	          0.31766288	          0.29396165	          0.31897720	          0.39315016	          0.05000001	          0.05800008	          0.12751043	          0.05000006	          0.05000001	          0.05000006	          0.05000000	          0.05000000	          0.05000000	
          1.67943845	         -2.92982924	          2.08502065	         -5.00450429	          2.10177592	          0.91973502	          0.00150068	         29.38673464	          3.56123464	         -1.77712581	        -17.48823587	         -1.15118486	          6.28180513	        -12.71339349	         -6.72675616	          5.99846514	         -0.46183384	         -4.55895828	          8.79526374	         -0.00380199	          0.77079392	         -0.89259350	         19.68288872	         -2.11694716	         -0.36091769	          1.94273400	         -4.94069348	        -13.47091957	          6.00526817	          4.78566595	        -13.45858815	         16.12878371	         17.10725558	         33.99904154	         86.51662706	         86.51662706	          0.05165623	          0.05228425	          0.05000006	          0.05926842	          0.05926840	          0.05000062	          0.07021809	          0.05000059	          0.21694944	          0.05000003	          0.05000015	          0.12902848	          0.30511446	          0.16842741	          0.15026974	          0.11594045	          0.05000003	          0.08321570	          0.07376534	          0.05000021	          0.14601084	          0.16058172	          0.05175315	          0.05000012	          0.12615601	          0.24936575	          0.13083236	          0.06084747	          0.15354546	          0.14977617	          0.13479279	          0.05000005	          0.05000008	          0.05087177	          0.05000000	          0.05000014	          0.05000005	          0.58762005	          0.27683027	          0.16986419	          0.29249830	          0.50306726	          0.24687307	          0.05926842	          0.10765029	          0.10195119	          0.27524035	          0.09871517	          0.07025504	          0.30089767	          0.19466087	          0.10470927	          0.05000025	          0.05000007	          0.05000005	          0.06256409	          0.09871642	          0.11329192	          0.05420362	          0.05000087	          0.05000096	          0.05000026	          0.29849617	          0.10608801	          0.05000165	          0.05000124	          0.05000087	          0.05000078	          0.37088925	          0.61226395	          0.05000172	          0.05000039	          0.05275580	          0.20741651	          0.05884411	          0.05033493	          0.05000574	          0.28275816	          0.38838094	          0.29500466	          0.29010819	          0.29283367	          0.38281545	          0.05000000	          0.05926777	          0.12768541	          0.05000005	          0.05000001	          0.05000005	          0.05000000	          0.05000004	          0.05000002	
          1.69056056	         -2.92568325	          2.18023653	         -5.28421531	          2.11850802	          0.91869589	          0.00129901	         28.74029280	          3.89080786	         -1.53078788	        -17.33015504	         -1.44673675	          6.06882458	        -12.84475698	         -8.68913085	          5.39603009	         -1.19895504	         -4.93902434	          9.70991775	         -0.00724679	          0.58492810	         -0.87617799	         20.75314202	         -1.92240741	         -0.57595069	          2.00567560	         -5.78988727	        -13.47441675	          5.72460348	          4.50013264	        -13.46874900	         16.44032061	         16.74339619	         35.14972945	         86.51662706	         86.51662706	          0.05000000	          0.05000001	          0.10841510	          0.05000001	          0.05000001	          0.05000002	          0.05923738	          0.05000017	          0.18302280	          0.05000006	          0.05000041	          0.10885099	          0.25740060	          0.31323491	          0.21718081	          0.13662587	          0.05000018	          0.07020298	          0.12081885	          0.08194008	          0.12349622	          0.13546992	          0.05000001	          0.05000017	          0.36093627	          0.21036982	          0.11037275	          0.05926862	          0.15243131	          0.15741697	          0.13193186	          0.05000007	          0.05926878	          0.05000000	          0.06757734	          0.05000064	          0.05926853	          0.49572777	          0.32003807	          0.21142923	          0.24675732	          0.45542181	          0.20826696	          0.05000000	          0.09081589	          0.08600801	          0.23219816	          0.08327806	          0.05926853	          0.25384320	          0.16421973	          0.08833479	          0.05000074	          0.05000014	          0.05000015	          0.05278030	          0.08327915	          0.19510850	          0.08313669	          0.05927804	          0.05926613	          0.05926857	          0.25181723	          0.08949939	          0.05000054	          0.05000072	          0.05000053	          0.05000069	          0.31288944	          0.56514207	          0.05000010	          0.05000204	          0.05901791	          0.17498071	          0.12919357	          0.15068570	          0.14479738	          0.23854031	          0.32764575	          0.24887170	          0.24846820	          0.24704035	          0.32295078	          0.05000000	          0.05000002	          0.13678329	          0.05000002	          0.05000000	          0.05000003	          0.05788496	          0.05926847	          0.05438736	
          1.70168267	         -2.91781149	          2.27746271	         -5.53613000	          2.13549073	          0.91769576	          0.00110949	         27.97197455	          4.14805986	         -1.26693652	        -17.09087073	         -1.73901285	          5.84632754	        -13.30184437	        -10.78084360	          4.92225316	         -2.11082973	         -5.33702729	         10.57510821	         -0.03339959	          0.38188651	         -0.93810194	         21.69221865	         -1.71094881	         -0.80018296	          2.05747202	         -6.65827346	        -13.48417240	          5.50236901	          4.14735009	        -13.47771084	         16.68657837	         16.42230776	         36.27953862	         86.51662706	         86.51662706	          0.24045049	          0.23700417	          0.29039063	          0.34219891	          0.21690413	          0.18792132	          0.07020310	          0.05000024	          0.15602994	          0.05000208	          0.05000122	          0.09182883	          0.21714819	          0.26425112	          0.18321801	          0.12012107	          0.05000014	          0.05923668	          0.10192524	          0.15341488	          0.14759817	          0.11428511	          0.05698771	          0.05000021	          0.30449290	          0.17747213	          0.22870883	          0.05000018	          0.12859405	          0.13280006	          0.11130031	          0.05000020	          0.05000037	          0.05179783	          0.05700959	          0.05000010	          0.05000020	          0.58489799	          0.35351986	          0.17836602	          0.34720582	          0.53719152	          0.20889844	          0.06471735	          0.10889352	          0.07255804	          0.33541972	          0.07025500	          0.05000010	          0.32616486	          0.13853899	          0.07452097	          0.05000039	          0.05000006	          0.05000004	          0.05000004	          0.07025599	          0.16459746	          0.08631868	          0.05000822	          0.05000043	          0.05000027	          0.21243912	          0.07845119	          0.05000038	          0.05000054	          0.05000032	          0.05000023	          0.26395967	          0.52737241	          0.05000005	          0.05000015	          0.05000004	          0.14761716	          0.10899028	          0.12712146	          0.12215395	          0.20123726	          0.27640836	          0.20995303	          0.20961265	          0.20840811	          0.27244763	          0.05000000	          0.09789640	          0.15568518	          0.05000003	          0.05000000	          0.05000003	          0.05543584	          0.05000004	          0.05000001	
